<svg width="91" height="21" viewBox="0 0 91 21" fill="none" xmlns="http://www.w3.org/2000/svg">
<path fill-rule="evenodd" clip-rule="evenodd" d="M7.83626 1.14178C5.73218 1.18247 3.8442 2.64492 3.34928 4.79242L0 19.3251L1.52708 19.6783C4.05724 20.2634 6.58187 18.6831 7.16601 16.1485L10.081 3.50014H7.83626V1.14178Z" fill="url(#paint0_linear_147_227)"/>
<path d="M16.3959 15.7016C17.0496 17.1464 16.4138 18.848 14.9728 19.5102C13.55 20.1639 11.8655 19.5628 11.1782 18.1559L4.86816 5.24047C4.11647 3.70191 4.87837 1.85228 6.49563 1.28954L6.5995 1.25339C8.23922 0.755913 9.99363 1.55134 10.7 3.11251L16.3959 15.7016Z" fill="url(#paint1_linear_147_227)"/>
<path fill-rule="evenodd" clip-rule="evenodd" d="M22 1.60892L20.4699 1.25567C17.9347 0.670369 15.405 2.25108 14.8197 4.78628L11.5894 18.7785C11.7778 19.0404 12.406 19.54 13.1126 19.7032L-nan -nanL13.1126 19.7032C15.5823 20.2733 18.0465 18.7335 18.6166 16.2639L22 1.60892Z" fill="url(#paint2_linear_147_227)"/>
<path d="M3.68987 3.80128C3.68987 3.80128 4.29399 3.86409 4.84557 5.19368L5.72466 4.81655C5.93479 3.72159 6.5437 1.37373 6.29367 1.40634C5.97341 1.44811 5.19367 2.00508 4.7481 2.39495C4.3787 2.71817 3.92658 3.28609 3.68987 3.80128Z" fill="#F5B309"/>
<path d="M12.1652 16.3053C11.9179 17.3686 11.3668 17.9471 11.0836 17.9471C11.3153 18.4162 11.3926 18.4944 11.5471 18.729L11.8561 19.0417L12.3197 19.3544C12.3197 18.0253 12.4124 15.242 12.1652 16.3053Z" fill="#F5B309"/>
<path d="M37.2044 18.56V12.782H41.0384V11.27H25.8104V12.782H29.6444V18.56H31.4264V12.782H35.4224V18.56H37.2044ZM27.9344 2.558V9.11H39.0404V7.58H29.7164V2.558H27.9344Z" fill="#939393"/>
<path d="M42.1932 14.87V16.382H57.4212V14.87H42.1932ZM49.8252 8.282C50.0232 8.696 50.7612 9.326 51.9312 10.064C53.0112 10.748 54.3252 11.504 55.6572 12.26L56.5212 10.874C55.0992 10.1 54.0552 9.506 52.9212 8.768C50.9772 7.49 50.7072 6.752 50.7072 4.988V3.17H48.9072V4.988C48.9072 6.752 48.5292 7.526 46.8912 8.642C45.6852 9.452 44.5512 10.1 43.1112 10.892L43.9932 12.296C45.4872 11.468 46.6392 10.766 47.6832 10.1C48.8892 9.326 49.6272 8.696 49.8072 8.282H49.8252Z" fill="#939393"/>
<path d="M62.806 10.658C62.932 11.018 63.202 11.414 63.562 11.846C64.282 12.71 65.038 13.502 65.992 14.456L67.198 13.268C66.136 12.242 65.344 11.396 64.588 10.424C63.868 9.488 63.634 8.642 63.634 7.616V6.014H66.46V4.52H63.634V2.36H61.906V4.52H58.9V6.014H61.906V7.616C61.906 8.642 61.726 9.524 61.006 10.46C60.232 11.468 59.296 12.44 58.216 13.466L59.422 14.672C60.376 13.7 61.294 12.71 62.014 11.846C62.374 11.414 62.662 11.018 62.788 10.658H62.806ZM67.99 7.958H65.56V9.506H67.99V17.786H69.736V2.342H67.99V7.958ZM73.03 2H71.284V18.596H73.03V2Z" fill="#939393"/>
<path d="M76.9208 3.44V4.988H86.2628V6.914C86.2628 7.328 86.2448 7.724 86.2448 8.12L76.6508 8.228L76.6868 9.74L86.1548 9.578C86.0648 10.82 85.9028 12.026 85.6508 13.358L87.4328 13.574C87.8468 11.324 88.0448 9.506 88.0448 6.284V3.44H76.9208ZM74.9588 14.87V16.382H90.1868V14.87H74.9588Z" fill="#939393"/>
<defs>
<linearGradient id="paint0_linear_147_227" x1="7.46111" y1="0.9095" x2="3.03953" y2="20.028" gradientUnits="userSpaceOnUse">
<stop stop-color="#FFCD4B"/>
<stop offset="1" stop-color="#F5B309"/>
</linearGradient>
<linearGradient id="paint1_linear_147_227" x1="14.9029" y1="19.1372" x2="6.3" y2="1.11135" gradientUnits="userSpaceOnUse">
<stop stop-color="#FFCD4B"/>
<stop offset="1" stop-color="#F5B309"/>
</linearGradient>
<linearGradient id="paint2_linear_147_227" x1="18.9397" y1="0.902409" x2="14.524" y2="20.029" gradientUnits="userSpaceOnUse">
<stop stop-color="#FFCD4B"/>
<stop offset="1" stop-color="#F5B309"/>
</linearGradient>
</defs>
</svg>
