<svg width="22" height="19" viewBox="0 0 22 19" fill="none" xmlns="http://www.w3.org/2000/svg">
<path d="M18.5892 5.20359L12.4763 0.489298H12.4762C12.064 0.172031 11.5585 0 11.0384 0C10.5183 0 10.0128 0.172049 9.60063 0.489298L3.48777 5.20359L0.344907 7.6235L0.344731 7.62368C0.165314 7.74539 0.0441255 7.93568 0.00992673 8.14984C-0.0244485 8.3638 0.0313235 8.58251 0.163739 8.75421C0.296327 8.92573 0.493811 9.035 0.709519 9.05605C0.925415 9.07692 1.14026 9.00799 1.30338 8.86505L3.1812 7.45867V16.1015C3.1812 16.7268 3.42954 17.3262 3.87151 17.7684C4.31365 18.2103 4.91309 18.4587 5.53834 18.4587H16.5384C17.1636 18.4587 17.763 18.2103 18.2052 17.7684C18.6472 17.3262 18.8955 16.7268 18.8955 16.1015V7.45867L20.7733 8.90434C20.9962 9.05552 21.2809 9.082 21.5276 8.97467C21.7746 8.86716 21.9493 8.64091 21.9906 8.37505C22.032 8.109 21.9345 7.84032 21.7319 7.66302L18.5892 5.20359ZM17.3242 16.1017C17.3242 16.31 17.2414 16.51 17.0941 16.6573C16.9467 16.8046 16.7468 16.8874 16.5384 16.8874H5.53843C5.33008 16.8874 5.13014 16.8046 4.98282 16.6573C4.8355 16.51 4.75272 16.31 4.75272 16.1017V6.20975L10.5589 1.74698V1.74681C10.6964 1.64105 10.8648 1.5837 11.0383 1.5837C11.2117 1.5837 11.3801 1.64105 11.5176 1.74681L17.3238 6.20976L17.3242 16.1017Z" fill="#E1A200"/>
</svg>
