<svg width="97" height="25" viewBox="0 0 97 25" fill="none" xmlns="http://www.w3.org/2000/svg">
<path fill-rule="evenodd" clip-rule="evenodd" d="M9.36631 1.36472C6.8514 1.41334 4.59479 3.16134 4.00323 5.72815L0 23.0983L1.82525 23.5205C4.84943 24.2199 7.867 22.331 8.56518 19.3015L12.0494 4.18355H9.36631V1.36472Z" fill="url(#paint0_linear_147_227)"/>
<path d="M19.5972 18.7674C20.3785 20.4943 19.6186 22.5281 17.8963 23.3195C16.1957 24.101 14.1823 23.3824 13.3607 21.7009L5.81868 6.26367C4.92022 4.4247 5.83089 2.21393 7.76392 1.54131L7.88807 1.49811C9.84795 0.903495 11.9449 1.85424 12.7892 3.72023L19.5972 18.7674Z" fill="url(#paint1_linear_147_227)"/>
<path fill-rule="evenodd" clip-rule="evenodd" d="M26.2955 1.92308L24.4667 1.50084C21.4365 0.801266 18.4129 2.69061 17.7133 5.72081L13.8522 22.445C14.0775 22.7581 14.8283 23.3553 15.6729 23.5503L-nan -nanL15.6729 23.5503C18.6247 24.2318 21.5701 22.3913 22.2516 19.4395L26.2955 1.92308Z" fill="url(#paint2_linear_147_227)"/>
<path d="M4.41032 4.54347C4.41032 4.54347 5.1324 4.61854 5.79167 6.20774L6.84242 5.75697C7.09357 4.44821 7.82137 1.64193 7.52252 1.68091C7.13974 1.73084 6.20774 2.39655 5.67517 2.86255C5.23365 3.24888 4.69325 3.92769 4.41032 4.54347Z" fill="#F5B309"/>
<path d="M14.5405 19.4889C14.245 20.7598 13.5862 21.4514 13.2476 21.4514C13.5247 22.0121 13.617 22.1055 13.8017 22.3858L14.1711 22.7596L14.7251 23.1334C14.7251 21.5448 14.8359 18.218 14.5405 19.4889Z" fill="#F5B309"/>
<path d="M43.2044 19.484V13.706H47.0384V12.194H31.8104V13.706H35.6444V19.484H37.4264V13.706H41.4224V19.484H43.2044ZM33.9344 3.482V10.034H45.0404V8.504H35.7164V3.482H33.9344ZM48.1932 15.794V17.306H63.4212V15.794H48.1932ZM55.8252 9.206C56.0232 9.62 56.7612 10.25 57.9312 10.988C59.0112 11.672 60.3252 12.428 61.6572 13.184L62.5212 11.798C61.0992 11.024 60.0552 10.43 58.9212 9.692C56.9772 8.414 56.7072 7.676 56.7072 5.912V4.094H54.9072V5.912C54.9072 7.676 54.5292 8.45 52.8912 9.566C51.6852 10.376 50.5512 11.024 49.1112 11.816L49.9932 13.22C51.4872 12.392 52.6392 11.69 53.6832 11.024C54.8892 10.25 55.6272 9.62 55.8072 9.206H55.8252ZM68.806 11.582C68.932 11.942 69.202 12.338 69.562 12.77C70.282 13.634 71.038 14.426 71.992 15.38L73.198 14.192C72.136 13.166 71.344 12.32 70.588 11.348C69.868 10.412 69.634 9.566 69.634 8.54V6.938H72.46V5.444H69.634V3.284H67.906V5.444H64.9V6.938H67.906V8.54C67.906 9.566 67.726 10.448 67.006 11.384C66.232 12.392 65.296 13.364 64.216 14.39L65.422 15.596C66.376 14.624 67.294 13.634 68.014 12.77C68.374 12.338 68.662 11.942 68.788 11.582H68.806ZM73.99 8.882H71.56V10.43H73.99V18.71H75.736V3.266H73.99V8.882ZM79.03 2.924H77.284V19.52H79.03V2.924ZM82.9208 4.364V5.912H92.2628V7.838C92.2628 8.252 92.2448 8.648 92.2448 9.044L82.6508 9.152L82.6868 10.664L92.1548 10.502C92.0648 11.744 91.9028 12.95 91.6508 14.282L93.4328 14.498C93.8468 12.248 94.0448 10.43 94.0448 7.208V4.364H82.9208ZM80.9588 15.794V17.306H96.1868V15.794H80.9588Z" fill="#939393"/>
<defs>
<linearGradient id="paint0_linear_147_227" x1="8.91791" y1="1.08708" x2="3.63301" y2="23.9386" gradientUnits="userSpaceOnUse">
<stop stop-color="#FFCD4B"/>
<stop offset="1" stop-color="#F5B309"/>
</linearGradient>
<linearGradient id="paint1_linear_147_227" x1="17.8127" y1="22.8737" x2="7.53009" y2="1.32833" gradientUnits="userSpaceOnUse">
<stop stop-color="#FFCD4B"/>
<stop offset="1" stop-color="#F5B309"/>
</linearGradient>
<linearGradient id="paint2_linear_147_227" x1="22.6378" y1="1.07861" x2="17.3599" y2="23.9397" gradientUnits="userSpaceOnUse">
<stop stop-color="#FFCD4B"/>
<stop offset="1" stop-color="#F5B309"/>
</linearGradient>
</defs>
</svg>
