<svg width="849" height="197" viewBox="0 0 849 197" fill="none" xmlns="http://www.w3.org/2000/svg">
<path fill-rule="evenodd" clip-rule="evenodd" d="M73.8066 10.7539C53.989 11.1371 36.2069 24.9114 31.5455 45.1378L0 182.015L14.383 185.341C38.2135 190.853 61.992 175.968 67.4937 152.096L94.9489 32.9664H73.8066V10.7539Z" fill="url(#paint0_linear_235_3260)"/>
<path d="M154.426 147.887C160.583 161.495 154.595 177.521 141.023 183.758V183.758C127.622 189.916 111.756 184.254 105.283 171.003L45.8512 49.3578V49.3578C38.7714 34.8667 45.9475 17.4458 61.1797 12.1456L62.158 11.8052V11.8052C77.6019 7.11961 94.1259 14.6115 100.779 29.3155L154.426 147.887Z" fill="url(#paint1_linear_235_3260)"/>
<path fill-rule="evenodd" clip-rule="evenodd" d="M207.209 15.1538L192.797 11.8266C168.919 6.31397 145.093 21.202 139.581 45.08L109.155 176.867C110.931 179.334 116.847 184.04 123.503 185.576L-nan -nanL123.503 185.576C146.763 190.946 169.972 176.443 175.342 153.183L207.209 15.1538Z" fill="url(#paint2_linear_235_3260)"/>
<path d="M34.7534 35.8026C34.7534 35.8026 40.4434 36.3942 45.6384 48.9171L53.9183 45.3651C55.8974 35.052 61.6325 12.9386 59.2775 13.2457C56.2612 13.6392 48.9171 18.885 44.7204 22.557C41.2412 25.6013 36.9829 30.9503 34.7534 35.8026Z" fill="#F5B309"/>
<path d="M114.579 153.573C112.25 163.588 107.06 169.037 104.391 169.037C106.574 173.455 107.302 174.191 108.757 176.4L111.668 179.346L116.034 182.292C116.034 169.773 116.907 143.558 114.579 153.573Z" fill="#F5B309"/>
<path d="M350.256 174.662V120.349H386.347V106.137H243V120.349H279.091V174.662H295.866V120.349H333.481V174.662H350.256ZM262.994 24.2451V85.833H367.539V71.4512H279.769V24.2451H262.994Z" fill="#939393"/>
<path d="M397.218 139.976V154.189H540.565V139.976H397.218ZM469.061 78.0499C470.924 81.9414 477.872 87.8633 488.885 94.8004C499.052 101.23 511.421 108.336 523.959 115.443L532.093 102.414C518.707 95.1388 508.879 89.5553 498.204 82.6182C479.905 70.6052 477.363 63.6681 477.363 47.0868V29.9978H460.419V47.0868C460.419 63.6681 456.861 70.9436 441.442 81.4338C430.089 89.0477 419.414 95.1388 405.859 102.584L414.162 115.781C428.225 107.998 439.07 101.399 448.897 95.1388C460.25 87.8633 467.197 81.9414 468.891 78.0499H469.061Z" fill="#939393"/>
<path d="M591.254 100.384C592.44 103.768 594.982 107.49 598.37 111.551C605.148 119.672 612.265 127.117 621.245 136.085L632.598 124.918C622.601 115.273 615.145 107.321 608.029 98.1844C601.251 89.3861 599.048 81.4338 599.048 71.7896V56.731H625.65V42.6876H599.048V22.384H582.782V42.6876H554.485V56.731H582.782V71.7896C582.782 81.4338 581.087 89.7245 574.31 98.5228C567.024 107.998 558.213 117.134 548.047 126.779L559.399 138.115C568.379 128.978 577.021 119.672 583.799 111.551C587.187 107.49 589.898 103.768 591.084 100.384H591.254ZM640.053 75.0043H617.178V89.5553H640.053V167.386H656.489V22.2148H640.053V75.0043ZM687.496 19H671.061V175H687.496V19Z" fill="#939393"/>
<path d="M724.122 32.5358V47.0868H812.062V65.1909C812.062 69.0824 811.892 72.8048 811.892 76.5271L721.58 77.5423L721.919 91.7549L811.045 90.2321C810.198 101.907 808.673 113.243 806.301 125.764L823.076 127.794C826.973 106.644 828.837 89.5553 828.837 59.269V32.5358H724.122ZM705.653 139.976V154.189H849V139.976H705.653Z" fill="#939393"/>
<defs>
<linearGradient id="paint0_linear_235_3260" x1="70.2732" y1="8.56615" x2="28.6281" y2="188.636" gradientUnits="userSpaceOnUse">
<stop stop-color="#FFCD4B"/>
<stop offset="1" stop-color="#F5B309"/>
</linearGradient>
<linearGradient id="paint1_linear_235_3260" x1="140.364" y1="180.245" x2="59.3372" y2="10.4673" gradientUnits="userSpaceOnUse">
<stop stop-color="#FFCD4B"/>
<stop offset="1" stop-color="#F5B309"/>
</linearGradient>
<linearGradient id="paint2_linear_235_3260" x1="178.386" y1="8.49945" x2="136.796" y2="188.645" gradientUnits="userSpaceOnUse">
<stop stop-color="#FFCD4B"/>
<stop offset="1" stop-color="#F5B309"/>
</linearGradient>
</defs>
</svg>
