<svg width="22" height="21" viewBox="0 0 22 21" fill="none" xmlns="http://www.w3.org/2000/svg">
<path fill-rule="evenodd" clip-rule="evenodd" d="M15.4164 13.7948C16.6693 12.3522 17.4303 10.4718 17.4303 8.41536C17.4303 3.88584 13.7451 0.2 9.21493 0.2C4.685 0.200162 0.999988 3.88572 0.999988 8.41536C0.999988 12.9449 4.68487 16.6303 9.21493 16.6303C11.2708 16.6303 13.1513 15.8695 14.5935 14.6164L20.0074 20.0299C20.121 20.1435 20.2698 20.2002 20.4188 20.2002C20.5674 20.2002 20.7164 20.1434 20.8296 20.0299C21.0516 19.8081 21.0567 19.4514 20.8448 19.2234C20.84 19.2183 20.8351 19.2132 20.8301 19.2082L15.4164 13.7948ZM20.9706 19.0662L15.6882 13.7837C16.8992 12.326 17.6303 10.4551 17.6303 8.41536C17.6303 3.77539 13.8555 0 9.21493 0C4.57453 0.000166208 0.799988 3.77527 0.799988 8.41536C0.799988 13.0553 4.57441 16.8303 9.21493 16.8303C11.2542 16.8303 13.1251 16.0994 14.5825 14.8883L19.866 20.1714C20.0187 20.3241 20.2191 20.4002 20.4188 20.4002C20.6182 20.4002 20.8187 20.3239 20.971 20.1714C21.2764 19.8663 21.2762 19.3713 20.9706 19.0662ZM9.21535 1.56353C5.43751 1.56353 2.36352 4.63771 2.36352 8.41578C2.36352 12.1938 5.43745 15.2676 9.21535 15.2676C12.9936 15.2676 16.0676 12.1939 16.0676 8.41578C16.0676 4.63768 12.9934 1.56353 9.21535 1.56353ZM9.21535 1.36353C5.32704 1.36353 2.16352 4.52726 2.16352 8.41578C2.16352 12.3042 5.327 15.4676 9.21535 15.4676C13.1041 15.4676 16.2676 12.3043 16.2676 8.41578C16.2676 4.52722 13.1039 1.36353 9.21535 1.36353Z" fill="#939393"/>
<path d="M20.8299 19.2083L15.4164 13.7948C16.6693 12.3522 17.4303 10.4718 17.4303 8.41537C17.4303 3.88585 13.7451 0.200012 9.21494 0.200012C4.68501 0.200174 1 3.88573 1 8.41537C1 12.9449 4.68489 16.6303 9.21494 16.6303C11.2708 16.6303 13.1514 15.8695 14.5935 14.6165L20.0074 20.0299C20.121 20.1435 20.2698 20.2002 20.4188 20.2002C20.5674 20.2002 20.7164 20.1434 20.8296 20.0299C21.0568 19.8029 21.0568 19.4346 20.8295 19.2076L20.8299 19.2083ZM2.16353 8.41579C2.16353 4.52727 5.32705 1.36355 9.21536 1.36355C13.1039 1.36355 16.2676 4.52723 16.2676 8.41579C16.2676 12.3043 13.1041 15.4676 9.21536 15.4676C5.32701 15.4676 2.16353 12.3043 2.16353 8.41579Z" fill="#939393"/>
</svg>
