<svg width="24" height="24" viewBox="0 0 24 24" fill="none" xmlns="http://www.w3.org/2000/svg">
<circle opacity="0.2" cx="12" cy="12" r="11.5" fill="white" stroke="#E6E6E6"/>
<path d="M16.3244 18C16.1724 18 16.0204 17.9512 15.9021 17.8537C15.8853 17.8375 15.8683 17.8211 15.8515 17.8049L12.0001 13.935L8.14871 17.8049C8.13186 17.8211 8.11489 17.8375 8.09804 17.8537C7.81089 18.0813 7.38858 18.0326 7.15212 17.7398C7.05079 17.6259 7.00012 17.4796 7.00012 17.3333L7 7.13818C7 6.50404 7.52362 6 8.18241 6H15.8176C16.4764 6 17 6.50404 17 7.13818V17.3333C17 17.5772 16.848 17.8048 16.6284 17.9187C16.527 17.9674 16.4257 18 16.3244 18L16.3244 18ZM12.0001 12.7317C12.1352 12.7317 12.2704 12.7805 12.3717 12.878L15.9866 16.5203V7.13819C15.9866 7.04064 15.9191 6.97554 15.8176 6.97554L8.18243 6.97565C8.0811 6.97565 8.01347 7.04064 8.01347 7.1383V16.5204L11.6284 12.8781C11.7297 12.7968 11.8648 12.7317 12 12.7317H12.0001Z" fill="#F5B309"/>
</svg>
