<svg width="24" height="24" viewBox="0 0 24 24" fill="none" xmlns="http://www.w3.org/2000/svg">
<circle opacity="0.2" cx="12" cy="12" r="11.5" fill="white" stroke="#DDDDDD"/>
<path d="M17.737 17.7139C17.5682 17.8825 17.3394 17.9774 17.1006 17.9774C16.8619 17.9774 16.6331 17.8825 16.4643 17.7139L12.011 13.2648L7.55781 17.7139C7.39141 17.8923 7.15965 17.9956 6.91556 17.9999C6.67147 18.0041 6.43602 17.9092 6.26355 17.7367C6.09088 17.5644 5.9959 17.3292 6.00014 17.0853C6.00437 16.8414 6.10782 16.6099 6.28638 16.4436L10.7396 11.9946L6.28638 7.54555C6.11261 7.3782 6.01357 7.14814 6.01137 6.90706C6.00916 6.66596 6.10396 6.43405 6.2746 6.26357C6.44505 6.09291 6.67718 5.99801 6.9185 6.00003C7.15964 6.00205 7.39012 6.10081 7.55778 6.27405L12.011 10.7231L16.4642 6.27405C16.64 6.09842 16.8703 6.01107 17.1 6.01107C17.3386 6.01107 17.5672 6.10578 17.7358 6.27423C17.9046 6.44269 17.9994 6.67129 17.9994 6.90943C17.9994 7.14778 17.9048 7.37637 17.7364 7.54501L13.2837 11.9941L17.737 16.4437C17.9054 16.6121 18 16.8405 18 17.0789C18 17.317 17.9054 17.5454 17.737 17.7139" fill="white"/>
</svg>
