<svg width="16" height="20" viewBox="0 0 16 20" fill="none" xmlns="http://www.w3.org/2000/svg">
<path d="M14.9191 19.9461C14.6759 19.9461 14.4327 19.865 14.2434 19.7029C14.2164 19.6759 14.1893 19.6488 14.1623 19.6218L8.00013 13.1893L1.83793 19.6218C1.81097 19.6488 1.78382 19.6759 1.75686 19.7029C1.29743 20.0812 0.621723 20.0002 0.24339 19.5136C0.081256 19.3243 0.000188527 19.0811 0.000188527 18.8379L0 1.89185C0 0.837795 0.837795 0 1.89186 0H14.1081C15.1622 0 16 0.837795 16 1.89185V18.8379C16 19.2432 15.7568 19.6216 15.4054 19.8109C15.2433 19.8919 15.0812 19.9461 14.9191 19.9461ZM8.00012 11.1893C8.21636 11.1893 8.4326 11.2703 8.59472 11.4325L14.3785 17.4865V1.89186C14.3785 1.72973 14.2705 1.62151 14.1082 1.62151L1.89189 1.6217C1.72976 1.6217 1.62155 1.72973 1.62155 1.89205V17.4867L7.40536 11.4326C7.5675 11.2975 7.78389 11.1893 8.00012 11.1893Z" fill="#939393"/>
</svg>
