<svg width="44" height="44" viewBox="0 0 44 44" fill="none" xmlns="http://www.w3.org/2000/svg">
<circle cx="22" cy="22" r="22" fill="#FEE500"/>
<path d="M21.9929 13.2C16.5165 13.2 12.1 16.81 12.1 21.1926C12.1 24.0373 13.9372 26.5283 16.6931 27.9506L15.7604 31.5102C15.7428 31.5635 15.7401 31.6208 15.7525 31.6756C15.765 31.7304 15.7922 31.7806 15.831 31.8206C15.8876 31.8716 15.9605 31.8998 16.0359 31.9C16.0985 31.8949 16.1579 31.8696 16.2055 31.8278L20.2192 29.0625C20.8117 29.1461 21.409 29.1895 22.007 29.1925C27.4764 29.1925 31.9 25.5824 31.9 21.1926C31.9 16.8028 27.4623 13.2 21.9929 13.2Z" fill="#392020"/>
</svg>
