<svg width="88" height="88" viewBox="0 0 88 88" fill="none" xmlns="http://www.w3.org/2000/svg">
<rect width="88" height="88" rx="10" fill="#EBEBEB"/>
<path fill-rule="evenodd" clip-rule="evenodd" d="M39.3614 28.8165C35.9361 28.8812 32.8626 31.2078 32.057 34.6243L26.6046 57.7444L29.0906 58.3063C33.2095 59.2372 37.3193 56.7231 38.2702 52.6908L43.0156 32.5684H39.3614V28.8165Z" fill="#D8D8D8"/>
<path d="M53.2956 51.9798C54.3598 54.2784 53.3248 56.9854 50.979 58.0389C48.6629 59.079 45.9206 58.1226 44.8017 55.8844L34.5296 35.3371C33.3059 32.8894 34.5462 29.9468 37.179 29.0515L37.3481 28.994C40.0174 28.2026 42.8734 29.468 44.0233 31.9517L53.2956 51.9798Z" fill="#D8D8D8"/>
<path fill-rule="evenodd" clip-rule="evenodd" d="M62.4186 29.5597L59.9277 28.9977C55.8006 28.0665 51.6826 30.5813 50.7297 34.6145L45.471 56.8748C45.7778 57.2916 46.8004 58.0864 47.9508 58.346L-nan -nanL47.9508 58.346C51.9711 59.253 55.9826 56.8033 56.9108 52.8744L62.4186 29.5597Z" fill="#D8D8D8"/>
<path d="M32.6115 33.0475C32.6115 33.0475 33.5949 33.1474 34.4928 35.2627L35.9239 34.6627C36.266 32.9207 37.2572 29.1855 36.8502 29.2374C36.3288 29.3038 35.0595 30.1899 34.3341 30.8101C33.7328 31.3244 32.9968 32.2279 32.6115 33.0475Z" fill="#D8D8D8"/>
<path d="M46.4084 52.9402C46.006 54.6318 45.1088 55.5523 44.6476 55.5523C45.025 56.2986 45.1507 56.4229 45.4023 56.7961L45.9053 57.2936L46.66 57.7911C46.66 55.6766 46.8109 51.2486 46.4084 52.9402Z" fill="#D8D8D8"/>
</svg>
