<svg width="43" height="51" viewBox="0 0 43 51" fill="none" xmlns="http://www.w3.org/2000/svg">
<path d="M31.8742 38.2495C23.673 38.2495 16.999 31.5756 16.999 23.374C16.999 15.1731 23.6727 8.49973 31.8742 8.49973H33.9989V4.24941C33.9989 1.90056 32.0983 0 29.7513 0H4.24935C1.90189 0 0 1.90056 0 4.24941V51L16.9994 42.4994L34 51V38.2499L31.8742 38.2495Z" fill="#939393"/>
<path d="M32.0005 13C25.9243 13 21 17.7004 21 23.4996C21 29.2996 25.9243 34 32.0005 34C38.0757 34 43 29.2996 43 23.4996C43 17.7004 38.0757 13 32.0005 13V13ZM38.6006 25.0748H33.6505V29.7999H30.3504V25.0748H25.4004V21.9248H30.3504V17.1997H33.6505V21.9248H38.6006V25.0748Z" fill="#939393"/>
</svg>
