<svg width="44" height="44" viewBox="0 0 44 44" fill="none" xmlns="http://www.w3.org/2000/svg">
<circle cx="22" cy="22" r="22" fill="white"/>
<g clip-path="url(#clip0_230_3303)">
<path d="M32.7855 22.2534C32.7855 21.5056 32.7249 20.7538 32.5955 20.0182H22.22V24.2541H28.1616C27.915 25.6203 27.1228 26.8288 25.9628 27.5968V30.3452H29.5075C31.5891 28.4294 32.7855 25.6001 32.7855 22.2534Z" fill="#4285F4"/>
<path d="M22.22 33.0008C25.1868 33.0008 27.6887 32.0267 29.5116 30.3452L25.9668 27.5968C24.9806 28.2677 23.7074 28.6477 22.2241 28.6477C19.3543 28.6477 16.9211 26.7116 16.048 24.1086H12.3901V26.942C14.2575 30.6565 18.0609 33.0008 22.22 33.0008Z" fill="#34A853"/>
<path d="M16.044 24.1086C15.5832 22.7425 15.5832 21.2631 16.044 19.897V17.0636H12.3901C10.8299 20.1718 10.8299 23.8338 12.3901 26.942L16.044 24.1086Z" fill="#FBBC04"/>
<path d="M22.22 15.3539C23.7883 15.3296 25.304 15.9197 26.4397 17.0029L29.5803 13.8624C27.5917 11.995 24.9523 10.9684 22.22 11.0007C18.0609 11.0007 14.2575 13.345 12.3901 17.0636L16.044 19.8969C16.913 17.2899 19.3503 15.3539 22.22 15.3539Z" fill="#EA4335"/>
</g>
<defs>
<clipPath id="clip0_230_3303">
<rect width="22" height="22" fill="white" transform="translate(11 11)"/>
</clipPath>
</defs>
</svg>
