<svg width="637" height="606" viewBox="0 0 637 606" fill="none" xmlns="http://www.w3.org/2000/svg">
<path fill-rule="evenodd" clip-rule="evenodd" d="M226.895 33.0595C165.973 34.2375 111.307 76.5822 96.9767 138.762L0 559.549L44.216 569.775C117.476 586.717 190.575 540.96 207.488 467.572L291.891 101.345H226.895V33.0595Z" fill="url(#paint0_linear_147_226)"/>
<path d="M474.735 454.632C493.663 496.467 475.254 545.734 433.531 564.907C392.335 583.838 343.561 566.43 323.659 525.695L140.956 151.735C119.191 107.187 141.251 53.6315 188.078 37.3375L191.086 36.291C238.563 21.8867 289.361 44.9181 309.813 90.121L474.735 454.632Z" fill="url(#paint1_linear_147_226)"/>
<path fill-rule="evenodd" clip-rule="evenodd" d="M637 46.5857L592.696 36.3572C519.29 19.4102 446.045 65.1788 429.098 138.584L335.565 543.722C341.022 551.307 359.21 565.773 379.671 570.497L-nan -nanL379.671 570.497C451.177 587.005 522.527 542.421 539.036 470.914L637 46.5857Z" fill="url(#paint2_linear_147_226)"/>
<path d="M106.839 110.064C106.839 110.064 124.331 111.883 140.301 150.38L165.755 139.461C171.839 107.756 189.47 39.7754 182.23 40.7197C172.958 41.9292 150.38 58.0557 137.479 69.3443C126.783 78.7031 113.692 95.1469 106.839 110.064Z" fill="#F5B309"/>
<path d="M352.237 472.112C345.078 502.899 329.121 519.651 320.919 519.651C327.63 533.234 329.867 535.497 334.341 542.289L343.289 551.344L356.711 560.399C356.711 521.915 359.395 441.325 352.237 472.112Z" fill="#F5B309"/>
<defs>
<linearGradient id="paint0_linear_147_226" x1="216.033" y1="26.3339" x2="88.0083" y2="579.902" gradientUnits="userSpaceOnUse">
<stop stop-color="#FFCD4B"/>
<stop offset="1" stop-color="#F5B309"/>
</linearGradient>
<linearGradient id="paint1_linear_147_226" x1="431.507" y1="554.108" x2="182.414" y2="32.1782" gradientUnits="userSpaceOnUse">
<stop stop-color="#FFCD4B"/>
<stop offset="1" stop-color="#F5B309"/>
</linearGradient>
<linearGradient id="paint2_linear_147_226" x1="548.392" y1="26.1288" x2="420.536" y2="579.931" gradientUnits="userSpaceOnUse">
<stop stop-color="#FFCD4B"/>
<stop offset="1" stop-color="#F5B309"/>
</linearGradient>
</defs>
</svg>
